<svg id="Capa_1" data-name="Capa 1" xmlns="http://www.w3.org/2000/svg" viewBox="0 0 250 250"><defs><style>.cls-1{fill:#fff;}</style></defs><path class="cls-1" d="M125,39.33A85.67,85.67,0,1,0,210.67,125,85.68,85.68,0,0,0,125,39.33Zm15,122.26a3.73,3.73,0,0,1-3.73,3.73h-22.5a3.73,3.73,0,0,1-3.73-3.73v-9.67a3.73,3.73,0,0,1,3.73-3.72h22.5a3.73,3.73,0,0,1,3.73,3.72Zm15-24.66a2.71,2.71,0,0,1-2.71,2.71H97.75A2.71,2.71,0,0,1,95,136.93V125.22a2.7,2.7,0,0,1,2.71-2.7h54.5a2.7,2.7,0,0,1,2.71,2.7Zm17.12-27.25A4.28,4.28,0,0,1,167.8,114H82.2a4.28,4.28,0,0,1-4.28-4.28V98.55a4.28,4.28,0,0,1,4.28-4.28h85.6a4.28,4.28,0,0,1,4.28,4.28Z"/></svg>